<mxfile host="app.diagrams.net" modified="2021-04-11T20:32:44.794Z" agent="5.0 (Windows NT 10.0; Win64; x64) AppleWebKit/537.36 (KHTML, like Gecko) Chrome/89.0.4389.114 Safari/537.36" etag="qUdaZfHHYPOZzbEr-adp" version="14.5.10" type="github">
  <diagram name="Page-1" id="c7558073-3199-34d8-9f00-42111426c3f3">
    <mxGraphModel dx="2011" dy="635" grid="1" gridSize="10" guides="1" tooltips="1" connect="1" arrows="1" fold="1" page="1" pageScale="1" pageWidth="826" pageHeight="1169" background="#ffffff" math="0" shadow="0">
      <root>
        <mxCell id="0" />
        <mxCell id="1" parent="0" />
        <mxCell id="5" value="Arduino" style="shape=process;whiteSpace=wrap;align=center;verticalAlign=middle;size=0.0475;fontStyle=1;strokeWidth=3;fillColor=#FFCCCC" parent="1" vertex="1">
          <mxGeometry x="-210.00000000000009" y="20" width="400" height="50" as="geometry" />
        </mxCell>
        <mxCell id="13" value="4 engine" style="whiteSpace=wrap;align=center;verticalAlign=middle;fontStyle=1;strokeWidth=3;fillColor=#FFFFCC" parent="1" vertex="1">
          <mxGeometry x="470" y="460" width="90" height="60" as="geometry" />
        </mxCell>
        <mxCell id="14" value="1 engine" style="whiteSpace=wrap;align=center;verticalAlign=middle;fontStyle=1;strokeWidth=3;fillColor=#FFFFCC" parent="1" vertex="1">
          <mxGeometry x="-580" y="210" width="90" height="60" as="geometry" />
        </mxCell>
        <mxCell id="15" value="6 endine" style="whiteSpace=wrap;align=center;verticalAlign=middle;fontStyle=1;strokeWidth=3;fillColor=#FFFFCC" parent="1" vertex="1">
          <mxGeometry x="469.9999999999999" y="710" width="90" height="60" as="geometry" />
        </mxCell>
        <mxCell id="76" value="" style="edgeStyle=elbowEdgeStyle;elbow=vertical;strokeColor=#990000;strokeWidth=2;exitX=0.136;exitY=0.022;exitDx=0;exitDy=0;exitPerimeter=0;entryX=0.798;entryY=1.06;entryDx=0;entryDy=0;entryPerimeter=0;" parent="1" source="57dyxb9ZxFRXxYD2dok0-119" target="5" edge="1">
          <mxGeometry width="100" height="100" relative="1" as="geometry">
            <mxPoint x="0.010000000000218279" y="586.98" as="sourcePoint" />
            <mxPoint x="520" y="480" as="targetPoint" />
            <Array as="points">
              <mxPoint x="60" y="510" />
              <mxPoint x="140" y="530" />
            </Array>
          </mxGeometry>
        </mxCell>
        <mxCell id="77" value="" style="edgeStyle=elbowEdgeStyle;elbow=vertical;strokeColor=#990000;strokeWidth=2;entryX=0.25;entryY=0;entryDx=0;entryDy=0;exitX=0.858;exitY=1.04;exitDx=0;exitDy=0;exitPerimeter=0;" parent="1" source="5" target="57dyxb9ZxFRXxYD2dok0-119" edge="1">
          <mxGeometry width="100" height="100" relative="1" as="geometry">
            <mxPoint x="400" y="590" as="sourcePoint" />
            <mxPoint x="17.5" y="585" as="targetPoint" />
            <Array as="points">
              <mxPoint x="50" y="530" />
              <mxPoint x="60" y="520" />
              <mxPoint x="160" y="540" />
              <mxPoint x="120" y="510" />
              <mxPoint x="110" y="510" />
            </Array>
          </mxGeometry>
        </mxCell>
        <mxCell id="78" value="" style="edgeStyle=elbowEdgeStyle;elbow=vertical;strokeWidth=2;strokeColor=#009900;entryX=0.823;entryY=0.997;entryDx=0;entryDy=0;entryPerimeter=0;" parent="1" target="57dyxb9ZxFRXxYD2dok0-119" edge="1">
          <mxGeometry width="100" height="100" relative="1" as="geometry">
            <mxPoint x="468" y="730" as="sourcePoint" />
            <mxPoint x="45" y="620" as="targetPoint" />
            <Array as="points">
              <mxPoint x="110" y="730" />
            </Array>
          </mxGeometry>
        </mxCell>
        <mxCell id="87" value="" style="edgeStyle=elbowEdgeStyle;elbow=vertical;strokeWidth=2;strokeColor=#009900;exitX=0.445;exitY=1;exitDx=0;exitDy=0;exitPerimeter=0;" parent="1" source="57dyxb9ZxFRXxYD2dok0-117" edge="1">
          <mxGeometry width="100" height="100" relative="1" as="geometry">
            <mxPoint x="-16" y="226" as="sourcePoint" />
            <mxPoint x="-490" y="250" as="targetPoint" />
            <Array as="points">
              <mxPoint x="-300" y="250" />
              <mxPoint x="-490" y="240" />
              <mxPoint x="-350" y="250" />
              <mxPoint x="-250" y="260" />
              <mxPoint x="-230" y="254" />
              <mxPoint x="-370" y="264" />
              <mxPoint x="-290" y="194" />
              <mxPoint x="-400" y="364" />
              <mxPoint x="-500" y="194" />
              <mxPoint x="-340" y="364" />
              <mxPoint x="-360" y="364" />
              <mxPoint x="-360" y="379" />
              <mxPoint x="-440" y="274" />
            </Array>
          </mxGeometry>
        </mxCell>
        <mxCell id="88" value="" style="edgeStyle=elbowEdgeStyle;elbow=vertical;strokeColor=#990000;strokeWidth=2;exitX=0.148;exitY=0.98;exitDx=0;exitDy=0;exitPerimeter=0;entryX=0.182;entryY=0.011;entryDx=0;entryDy=0;entryPerimeter=0;" parent="1" source="5" target="57dyxb9ZxFRXxYD2dok0-118" edge="1">
          <mxGeometry width="100" height="100" relative="1" as="geometry">
            <mxPoint x="50" y="500" as="sourcePoint" />
            <mxPoint x="-37.5" y="365" as="targetPoint" />
            <Array as="points">
              <mxPoint x="-100" y="290" />
              <mxPoint x="-110" y="300" />
            </Array>
          </mxGeometry>
        </mxCell>
        <mxCell id="89" value="" style="edgeStyle=elbowEdgeStyle;elbow=vertical;strokeColor=#990000;strokeWidth=2;entryX=0.2;entryY=1.02;entryDx=0;entryDy=0;entryPerimeter=0;exitX=0.336;exitY=-0.011;exitDx=0;exitDy=0;exitPerimeter=0;" parent="1" source="57dyxb9ZxFRXxYD2dok0-118" target="5" edge="1">
          <mxGeometry width="100" height="100" relative="1" as="geometry">
            <mxPoint x="-10" y="365" as="sourcePoint" />
            <mxPoint x="159.9999999999999" y="410" as="targetPoint" />
            <Array as="points">
              <mxPoint x="60" y="270" />
            </Array>
          </mxGeometry>
        </mxCell>
        <mxCell id="92" value="" style="edgeStyle=elbowEdgeStyle;elbow=horizontal;strokeColor=#990000;strokeWidth=2" parent="1" source="5" edge="1">
          <mxGeometry width="100" height="100" relative="1" as="geometry">
            <mxPoint x="30.000000000000114" y="500" as="sourcePoint" />
            <mxPoint x="-30" y="120" as="targetPoint" />
            <Array as="points">
              <mxPoint x="-30" y="90" />
              <mxPoint x="-10" y="90" />
              <mxPoint x="20" y="100" />
              <mxPoint x="120" y="100" />
              <mxPoint x="-100" y="210" />
              <mxPoint x="-280" y="110" />
              <mxPoint x="260" y="130" />
              <mxPoint x="250" y="470" />
            </Array>
          </mxGeometry>
        </mxCell>
        <mxCell id="93" value="" style="edgeStyle=elbowEdgeStyle;elbow=horizontal;strokeColor=#990000;strokeWidth=2;exitX=0.155;exitY=0.011;exitDx=0;exitDy=0;exitPerimeter=0;" parent="1" source="57dyxb9ZxFRXxYD2dok0-117" target="5" edge="1">
          <mxGeometry width="100" height="100" relative="1" as="geometry">
            <mxPoint x="-20" y="120" as="sourcePoint" />
            <mxPoint x="140" y="410" as="targetPoint" />
            <Array as="points">
              <mxPoint x="-50" y="100" />
              <mxPoint x="-20" y="100" />
              <mxPoint x="-30" y="100" />
              <mxPoint x="45" y="120" />
              <mxPoint x="-130" y="200" />
              <mxPoint x="-140" y="110" />
              <mxPoint x="280" y="130" />
              <mxPoint x="230" y="470" />
            </Array>
          </mxGeometry>
        </mxCell>
        <mxCell id="57dyxb9ZxFRXxYD2dok0-96" style="edgeStyle=orthogonalEdgeStyle;rounded=0;orthogonalLoop=1;jettySize=auto;html=1;exitX=0.5;exitY=1;exitDx=0;exitDy=0;" edge="1" parent="1">
          <mxGeometry relative="1" as="geometry">
            <mxPoint x="-10" y="675" as="sourcePoint" />
            <mxPoint x="-10" y="675" as="targetPoint" />
          </mxGeometry>
        </mxCell>
        <mxCell id="57dyxb9ZxFRXxYD2dok0-100" value="2 engine" style="whiteSpace=wrap;align=center;verticalAlign=middle;fontStyle=1;strokeWidth=3;fillColor=#FFFFCC" vertex="1" parent="1">
          <mxGeometry x="470" y="210" width="90" height="60" as="geometry" />
        </mxCell>
        <mxCell id="57dyxb9ZxFRXxYD2dok0-101" value="" style="edgeStyle=elbowEdgeStyle;elbow=vertical;strokeWidth=2;strokeColor=#009900;entryX=0.25;entryY=1;entryDx=0;entryDy=0;" edge="1" parent="1" target="57dyxb9ZxFRXxYD2dok0-117">
          <mxGeometry width="100" height="100" relative="1" as="geometry">
            <mxPoint x="-491" y="230" as="sourcePoint" />
            <mxPoint x="-22" y="211" as="targetPoint" />
            <Array as="points">
              <mxPoint x="-420" y="230" />
              <mxPoint x="-260" y="240" />
              <mxPoint x="-250" y="260" />
              <mxPoint x="-240" y="270" />
              <mxPoint x="-350" y="337" />
              <mxPoint x="-400" y="170" />
              <mxPoint x="-320" y="200" />
              <mxPoint x="-270" y="270" />
              <mxPoint x="-300" y="110" />
              <mxPoint x="-310" y="110" />
              <mxPoint x="-360" y="110" />
              <mxPoint x="-470" y="180" />
              <mxPoint x="-340" y="343" />
              <mxPoint x="-340" y="300" />
            </Array>
          </mxGeometry>
        </mxCell>
        <mxCell id="57dyxb9ZxFRXxYD2dok0-102" value="3 engine" style="whiteSpace=wrap;align=center;verticalAlign=middle;fontStyle=1;strokeWidth=3;fillColor=#FFFFCC" vertex="1" parent="1">
          <mxGeometry x="-580" y="460" width="90" height="60" as="geometry" />
        </mxCell>
        <mxCell id="57dyxb9ZxFRXxYD2dok0-103" value="5 engine" style="whiteSpace=wrap;align=center;verticalAlign=middle;fontStyle=1;strokeWidth=3;fillColor=#FFFFCC" vertex="1" parent="1">
          <mxGeometry x="-580" y="710" width="90" height="60" as="geometry" />
        </mxCell>
        <mxCell id="57dyxb9ZxFRXxYD2dok0-108" value="" style="edgeStyle=elbowEdgeStyle;elbow=vertical;strokeWidth=2;strokeColor=#009900;exitX=0.645;exitY=0.989;exitDx=0;exitDy=0;exitPerimeter=0;" edge="1" parent="1" source="57dyxb9ZxFRXxYD2dok0-117">
          <mxGeometry width="100" height="100" relative="1" as="geometry">
            <mxPoint x="45" y="180" as="sourcePoint" />
            <mxPoint x="470" y="250" as="targetPoint" />
            <Array as="points">
              <mxPoint x="260" y="250" />
              <mxPoint x="280" y="260" />
              <mxPoint x="260" y="240" />
              <mxPoint x="240" y="255" />
              <mxPoint x="90" y="180" />
              <mxPoint x="255" y="150" />
              <mxPoint x="185" y="337" />
              <mxPoint x="135" y="170" />
              <mxPoint x="215" y="200" />
              <mxPoint x="265" y="270" />
              <mxPoint x="235" y="110" />
              <mxPoint x="225" y="110" />
              <mxPoint x="175" y="110" />
              <mxPoint x="65" y="180" />
              <mxPoint x="195" y="343" />
              <mxPoint x="195" y="300" />
            </Array>
          </mxGeometry>
        </mxCell>
        <mxCell id="57dyxb9ZxFRXxYD2dok0-109" value="" style="edgeStyle=elbowEdgeStyle;elbow=vertical;strokeWidth=2;strokeColor=#009900;exitX=0;exitY=0.367;exitDx=0;exitDy=0;entryX=0.827;entryY=0.989;entryDx=0;entryDy=0;entryPerimeter=0;exitPerimeter=0;" edge="1" parent="1" source="57dyxb9ZxFRXxYD2dok0-100" target="57dyxb9ZxFRXxYD2dok0-117">
          <mxGeometry width="100" height="100" relative="1" as="geometry">
            <mxPoint x="470" y="150" as="sourcePoint" />
            <mxPoint x="45" y="150" as="targetPoint" />
            <Array as="points">
              <mxPoint x="380" y="230" />
              <mxPoint x="240" y="240" />
              <mxPoint x="135" y="320" />
              <mxPoint x="35" y="150" />
              <mxPoint x="195" y="320" />
              <mxPoint x="175" y="320" />
              <mxPoint x="175" y="335" />
              <mxPoint x="95" y="230" />
            </Array>
          </mxGeometry>
        </mxCell>
        <mxCell id="57dyxb9ZxFRXxYD2dok0-110" value="" style="edgeStyle=elbowEdgeStyle;elbow=vertical;strokeWidth=2;strokeColor=#009900;exitX=0.002;exitY=0.34;exitDx=0;exitDy=0;exitPerimeter=0;entryX=0.813;entryY=1.022;entryDx=0;entryDy=0;entryPerimeter=0;" edge="1" parent="1" source="13" target="57dyxb9ZxFRXxYD2dok0-118">
          <mxGeometry width="100" height="100" relative="1" as="geometry">
            <mxPoint x="470" y="400" as="sourcePoint" />
            <mxPoint x="26" y="450" as="targetPoint" />
            <Array as="points">
              <mxPoint x="300" y="480" />
              <mxPoint x="270" y="484" />
              <mxPoint x="245" y="400" />
              <mxPoint x="135" y="570" />
              <mxPoint x="35" y="400" />
              <mxPoint x="195" y="570" />
              <mxPoint x="175" y="570" />
              <mxPoint x="175" y="585" />
              <mxPoint x="95" y="480" />
            </Array>
          </mxGeometry>
        </mxCell>
        <mxCell id="57dyxb9ZxFRXxYD2dok0-111" value="" style="edgeStyle=elbowEdgeStyle;elbow=vertical;strokeWidth=2;strokeColor=#009900;exitX=0.366;exitY=1.01;exitDx=0;exitDy=0;exitPerimeter=0;" edge="1" parent="1" source="57dyxb9ZxFRXxYD2dok0-118" target="57dyxb9ZxFRXxYD2dok0-102">
          <mxGeometry width="100" height="100" relative="1" as="geometry">
            <mxPoint x="-10" y="450" as="sourcePoint" />
            <mxPoint x="-480" y="570" as="targetPoint" />
            <Array as="points">
              <mxPoint x="-250" y="500" />
              <mxPoint x="-280" y="500" />
              <mxPoint x="-290" y="420" />
              <mxPoint x="-400" y="590" />
              <mxPoint x="-500" y="420" />
              <mxPoint x="-340" y="590" />
              <mxPoint x="-360" y="590" />
              <mxPoint x="-360" y="605" />
              <mxPoint x="-440" y="500" />
            </Array>
          </mxGeometry>
        </mxCell>
        <mxCell id="57dyxb9ZxFRXxYD2dok0-112" value="" style="edgeStyle=elbowEdgeStyle;elbow=vertical;strokeWidth=2;strokeColor=#009900;exitX=0.361;exitY=0.997;exitDx=0;exitDy=0;exitPerimeter=0;" edge="1" parent="1" source="57dyxb9ZxFRXxYD2dok0-119">
          <mxGeometry width="100" height="100" relative="1" as="geometry">
            <mxPoint x="-65" y="750" as="sourcePoint" />
            <mxPoint x="-490" y="750" as="targetPoint" />
            <Array as="points">
              <mxPoint x="-290" y="750" />
              <mxPoint x="-400" y="920" />
              <mxPoint x="-500" y="750" />
              <mxPoint x="-340" y="920" />
              <mxPoint x="-360" y="920" />
              <mxPoint x="-360" y="935" />
              <mxPoint x="-440" y="830" />
            </Array>
          </mxGeometry>
        </mxCell>
        <mxCell id="57dyxb9ZxFRXxYD2dok0-113" value="" style="edgeStyle=elbowEdgeStyle;elbow=vertical;strokeWidth=2;strokeColor=#009900;exitX=0.682;exitY=1.022;exitDx=0;exitDy=0;exitPerimeter=0;" edge="1" parent="1" source="57dyxb9ZxFRXxYD2dok0-118">
          <mxGeometry width="100" height="100" relative="1" as="geometry">
            <mxPoint x="45" y="420" as="sourcePoint" />
            <mxPoint x="470" y="500" as="targetPoint" />
            <Array as="points">
              <mxPoint x="180" y="500" />
              <mxPoint x="260" y="505" />
              <mxPoint x="90" y="420" />
              <mxPoint x="255" y="390" />
              <mxPoint x="185" y="577" />
              <mxPoint x="135" y="410" />
              <mxPoint x="215" y="440" />
              <mxPoint x="265" y="510" />
              <mxPoint x="235" y="350" />
              <mxPoint x="225" y="350" />
              <mxPoint x="175" y="350" />
              <mxPoint x="65" y="420" />
              <mxPoint x="195" y="583" />
              <mxPoint x="195" y="540" />
            </Array>
          </mxGeometry>
        </mxCell>
        <mxCell id="57dyxb9ZxFRXxYD2dok0-114" value="" style="edgeStyle=elbowEdgeStyle;elbow=vertical;strokeWidth=2;strokeColor=#009900;exitX=1.002;exitY=0.331;exitDx=0;exitDy=0;exitPerimeter=0;" edge="1" parent="1" source="57dyxb9ZxFRXxYD2dok0-102">
          <mxGeometry width="100" height="100" relative="1" as="geometry">
            <mxPoint x="-490" y="400" as="sourcePoint" />
            <mxPoint x="-40" y="456" as="targetPoint" />
            <Array as="points">
              <mxPoint x="-310" y="480" />
              <mxPoint x="-445" y="400" />
              <mxPoint x="-280" y="370" />
              <mxPoint x="-350" y="557" />
              <mxPoint x="-400" y="390" />
              <mxPoint x="-320" y="420" />
              <mxPoint x="-270" y="490" />
              <mxPoint x="-300" y="330" />
              <mxPoint x="-310" y="330" />
              <mxPoint x="-360" y="330" />
              <mxPoint x="-470" y="400" />
              <mxPoint x="-340" y="563" />
              <mxPoint x="-340" y="520" />
            </Array>
          </mxGeometry>
        </mxCell>
        <mxCell id="57dyxb9ZxFRXxYD2dok0-115" value="" style="edgeStyle=elbowEdgeStyle;elbow=vertical;strokeWidth=2;strokeColor=#009900;exitX=0.642;exitY=1.003;exitDx=0;exitDy=0;exitPerimeter=0;" edge="1" parent="1" source="57dyxb9ZxFRXxYD2dok0-119">
          <mxGeometry width="100" height="100" relative="1" as="geometry">
            <mxPoint x="10" y="680" as="sourcePoint" />
            <mxPoint x="470" y="750" as="targetPoint" />
            <Array as="points">
              <mxPoint x="240" y="750" />
              <mxPoint x="90" y="650" />
              <mxPoint x="255" y="620" />
              <mxPoint x="185" y="807" />
              <mxPoint x="135" y="640" />
              <mxPoint x="215" y="670" />
              <mxPoint x="265" y="740" />
              <mxPoint x="235" y="580" />
              <mxPoint x="225" y="580" />
              <mxPoint x="175" y="580" />
              <mxPoint x="65" y="650" />
              <mxPoint x="195" y="813" />
              <mxPoint x="195" y="770" />
            </Array>
          </mxGeometry>
        </mxCell>
        <mxCell id="57dyxb9ZxFRXxYD2dok0-116" value="" style="edgeStyle=elbowEdgeStyle;elbow=vertical;strokeWidth=2;strokeColor=#009900;entryX=0.195;entryY=0.99;entryDx=0;entryDy=0;entryPerimeter=0;" edge="1" parent="1" target="57dyxb9ZxFRXxYD2dok0-119">
          <mxGeometry width="100" height="100" relative="1" as="geometry">
            <mxPoint x="-490" y="730" as="sourcePoint" />
            <mxPoint x="-65" y="620" as="targetPoint" />
            <Array as="points">
              <mxPoint x="-230" y="730" />
              <mxPoint x="-280" y="590" />
              <mxPoint x="-350" y="777" />
              <mxPoint x="-400" y="610" />
              <mxPoint x="-320" y="640" />
              <mxPoint x="-270" y="710" />
              <mxPoint x="-300" y="550" />
              <mxPoint x="-310" y="550" />
              <mxPoint x="-360" y="550" />
              <mxPoint x="-470" y="620" />
              <mxPoint x="-340" y="783" />
              <mxPoint x="-340" y="740" />
            </Array>
          </mxGeometry>
        </mxCell>
        <mxCell id="57dyxb9ZxFRXxYD2dok0-117" value="1 draiver" style="rounded=1;whiteSpace=wrap;html=1;strokeWidth=3;fillColor=#E6FFCC;fontStyle=5" vertex="1" parent="1">
          <mxGeometry x="-65" y="120" width="110" height="90" as="geometry" />
        </mxCell>
        <mxCell id="57dyxb9ZxFRXxYD2dok0-118" value="2 draiver" style="rounded=1;whiteSpace=wrap;html=1;strokeWidth=3;fillColor=#E6FFCC;fontStyle=5" vertex="1" parent="1">
          <mxGeometry x="-65" y="365" width="110" height="90" as="geometry" />
        </mxCell>
        <mxCell id="57dyxb9ZxFRXxYD2dok0-119" value="3 draiver" style="rounded=1;whiteSpace=wrap;html=1;strokeWidth=3;fillColor=#E6FFCC;fontStyle=5" vertex="1" parent="1">
          <mxGeometry x="-65" y="585" width="110" height="90" as="geometry" />
        </mxCell>
      </root>
    </mxGraphModel>
  </diagram>
</mxfile>
